# xmcd CD database file
#
# Track frame offsets:
#	150
#	34507
#	44135
#	58592
#	93832
#	114615
#	135197
#	146697
#	169957
#	194132
#	209592
#	243017
#	282155
#	290595
#	321522
#
# Disc length: 4503 seconds
#
# Revision: 0
# Processed by: cddbd v1.5PL3 Copyright (c) Steve Scherf et al.
# Submitted via: CDex 1.50
#
DISCID=eb11950f
DTITLE=Stevie Ray Vaughan and Double Trouble - Parker's Place Seattle Wa 9-1-85
DYEAR=1985
DGENRE=Blues
TTITLE0=Suttle Buttin' - Say What
TTITLE1=I'm Looking Out The Window
TTITLE2=Look At Little Sister
TTITLE3=Ain't Gone n Give Up On Love
TTITLE4=Change It
TTITLE5=You'll Be Mine
TTITLE6=Empty Arms
TTITLE7=Come On
TTITLE8=Pride and Joy
TTITLE9=Testify
TTITLE10=Couldn't Stand The Weather
TTITLE11=Life Without You
TTITLE12=Introducing Bonnie Raitt
TTITLE13=Texas Flood
TTITLE14=Testify
EXTD=YEAR: 1985
EXTT0=
EXTT1=
EXTT2=
EXTT3=
EXTT4=
EXTT5=
EXTT6=
EXTT7=
EXTT8=
EXTT9=
EXTT10=
EXTT11=
EXTT12=
EXTT13=
EXTT14=
PLAYORDER=
